<?xml version="1.0" encoding="UTF-8" standalone="no"?>
<!DOCTYPE svg PUBLIC "-//W3C//DTD SVG 1.1//EN"
 "http://www.w3.org/Graphics/SVG/1.1/DTD/svg11.dtd">
<!-- Generated by graphviz version 2.43.0 (0)
 -->
<!-- Title: CNC_Interconnects Pages: 1 -->
<svg width="390pt" height="2151pt"
 viewBox="0.00 0.00 389.89 2151.00" xmlns="http://www.w3.org/2000/svg" xmlns:xlink="http://www.w3.org/1999/xlink">
<g id="graph0" class="graph" transform="scale(1 1) rotate(0) translate(4 2147)">
<title>CNC_Interconnects</title>
<polygon fill="white" stroke="transparent" points="-4,4 -4,-2147 385.89,-2147 385.89,4 -4,4"/>
<!-- RPI -->
<g id="node1" class="node">
<title>RPI</title>
<path fill="#f3f7ff" stroke="black" d="M125.5,-1906C125.5,-1906 23.5,-1906 23.5,-1906 17.5,-1906 11.5,-1900 11.5,-1894 11.5,-1894 11.5,-1880 11.5,-1880 11.5,-1874 17.5,-1868 23.5,-1868 23.5,-1868 125.5,-1868 125.5,-1868 131.5,-1868 137.5,-1874 137.5,-1880 137.5,-1880 137.5,-1894 137.5,-1894 137.5,-1900 131.5,-1906 125.5,-1906"/>
<text text-anchor="middle" x="74.5" y="-1890.8" font-family="Liberation Sans" font-size="14.00">J1</text>
<text text-anchor="middle" x="74.5" y="-1875.8" font-family="Liberation Sans" font-size="14.00">Raspberry Pi 3 A+</text>
</g>
<!-- NET_3V3 -->
<g id="node6" class="node">
<title>NET_3V3</title>
<ellipse fill="#e0ecff" stroke="black" cx="314.94" cy="-1510" rx="27" ry="18"/>
<text text-anchor="middle" x="314.94" y="-1506.3" font-family="Liberation Sans" font-size="14.00">3V3</text>
</g>
<!-- RPI&#45;&gt;NET_3V3 -->
<g id="edge1" class="edge">
<title>RPI&#45;&gt;NET_3V3</title>
<path fill="none" stroke="black" d="M81.07,-1867.76C92.01,-1833.18 119.47,-1760.2 167,-1718 189.52,-1698 211.3,-1716.62 230,-1693 264.03,-1650.03 222.43,-1619.48 248,-1571 258.84,-1550.45 279.4,-1533.15 294.7,-1522.29"/>
<text text-anchor="middle" x="198.5" y="-1721" font-family="Liberation Sans" font-size="10.00">3V3</text>
</g>
<!-- NET_GND -->
<g id="node7" class="node">
<title>NET_GND</title>
<ellipse fill="#e0ecff" stroke="black" cx="314.94" cy="-765" rx="30.59" ry="18"/>
<text text-anchor="middle" x="314.94" y="-761.3" font-family="Liberation Sans" font-size="14.00">GND</text>
</g>
<!-- RPI&#45;&gt;NET_GND -->
<g id="edge5" class="edge">
<title>RPI&#45;&gt;NET_GND</title>
<path fill="none" stroke="black" d="M78.92,-1867.87C90.87,-1800.25 130.97,-1566.07 149,-1371 153.3,-1324.49 143.17,-991.17 167,-951 183.68,-922.88 211.19,-939.75 230,-913 253.46,-879.63 227.61,-858.33 248,-823 258.9,-804.12 278.2,-788.23 293.11,-777.89"/>
<text text-anchor="middle" x="198.5" y="-954" font-family="Liberation Sans" font-size="10.00">GND</text>
</g>
<!-- NET_SPI_MOSI -->
<g id="node8" class="node">
<title>NET_SPI_MOSI</title>
<ellipse fill="#e0ecff" stroke="black" cx="314.94" cy="-1955" rx="53.09" ry="18"/>
<text text-anchor="middle" x="314.94" y="-1951.3" font-family="Liberation Sans" font-size="14.00">SPI_MOSI</text>
</g>
<!-- RPI&#45;&gt;NET_SPI_MOSI -->
<g id="edge10" class="edge">
<title>RPI&#45;&gt;NET_SPI_MOSI</title>
<path fill="none" stroke="black" d="M80.69,-1906.13C90.89,-1939.42 117,-2007.13 167,-2035 191.46,-2048.63 204,-2045.4 230,-2035 234.16,-2033.34 273.12,-1995.31 296.47,-1972.29"/>
<text text-anchor="middle" x="198.5" y="-2047" font-family="Liberation Sans" font-size="10.00">SPI_MOSI</text>
</g>
<!-- NET_SPI_MISO -->
<g id="node9" class="node">
<title>NET_SPI_MISO</title>
<ellipse fill="#e0ecff" stroke="black" cx="314.94" cy="-1853" rx="53.09" ry="18"/>
<text text-anchor="middle" x="314.94" y="-1849.3" font-family="Liberation Sans" font-size="14.00">SPI_MISO</text>
</g>
<!-- RPI&#45;&gt;NET_SPI_MISO -->
<g id="edge13" class="edge">
<title>RPI&#45;&gt;NET_SPI_MISO</title>
<path fill="none" stroke="black" d="M91.15,-1906.12C119.64,-1938.57 181.53,-1998.01 230,-1967 246.08,-1956.71 237.59,-1944 248,-1928 262.09,-1906.35 282.12,-1884.49 296.4,-1870.01"/>
<text text-anchor="middle" x="198.5" y="-1978" font-family="Liberation Sans" font-size="10.00">SPI_MISO</text>
</g>
<!-- NET_SPI_SCK -->
<g id="node10" class="node">
<title>NET_SPI_SCK</title>
<ellipse fill="#e0ecff" stroke="black" cx="314.94" cy="-1683" rx="48.19" ry="18"/>
<text text-anchor="middle" x="314.94" y="-1679.3" font-family="Liberation Sans" font-size="14.00">SPI_SCK</text>
</g>
<!-- RPI&#45;&gt;NET_SPI_SCK -->
<g id="edge16" class="edge">
<title>RPI&#45;&gt;NET_SPI_SCK</title>
<path fill="none" stroke="black" d="M88.53,-1867.67C104.58,-1845.19 133.83,-1808.33 167,-1786 191.73,-1769.36 204.68,-1778.72 230,-1763 237.57,-1758.3 274.8,-1721.86 297.06,-1699.81"/>
<text text-anchor="middle" x="198.5" y="-1789" font-family="Liberation Sans" font-size="10.00">SPI_SCK</text>
</g>
<!-- NET_CS_STM32 -->
<g id="node11" class="node">
<title>NET_CS_STM32</title>
<ellipse fill="#e0ecff" stroke="black" cx="314.94" cy="-1775" rx="56.59" ry="18"/>
<text text-anchor="middle" x="314.94" y="-1771.3" font-family="Liberation Sans" font-size="14.00">CS_STM32</text>
</g>
<!-- RPI&#45;&gt;NET_CS_STM32 -->
<g id="edge19" class="edge">
<title>RPI&#45;&gt;NET_CS_STM32</title>
<path fill="none" stroke="black" d="M137.81,-1884.13C174.1,-1881.32 215.49,-1875.8 230,-1865 245.31,-1853.6 236.11,-1840.93 248,-1826 259,-1812.19 274.49,-1799.96 287.7,-1790.94"/>
<text text-anchor="middle" x="198.5" y="-1884" font-family="Liberation Sans" font-size="10.00">CS_STM32</text>
</g>
<!-- NET_CS_TMC5160 -->
<g id="node12" class="node">
<title>NET_CS_TMC5160</title>
<ellipse fill="#e0ecff" stroke="black" cx="314.94" cy="-2047" rx="66.89" ry="18"/>
<text text-anchor="middle" x="314.94" y="-2043.3" font-family="Liberation Sans" font-size="14.00">CS_TMC5160</text>
</g>
<!-- RPI&#45;&gt;NET_CS_TMC5160 -->
<g id="edge21" class="edge">
<title>RPI&#45;&gt;NET_CS_TMC5160</title>
<path fill="none" stroke="black" d="M79.04,-1906.14C87.09,-1943.44 110.61,-2025.12 167,-2059 199.8,-2078.71 244.41,-2071.3 275.84,-2061.73"/>
<text text-anchor="middle" x="198.5" y="-2074" font-family="Liberation Sans" font-size="10.00">CS_TMC5160</text>
</g>
<!-- NET_5V_AUX -->
<g id="node32" class="node">
<title>NET_5V_AUX</title>
<ellipse fill="#e0ecff" stroke="black" cx="314.94" cy="-1442" rx="44.39" ry="18"/>
<text text-anchor="middle" x="314.94" y="-1438.3" font-family="Liberation Sans" font-size="14.00">5V_AUX</text>
</g>
<!-- RPI&#45;&gt;NET_5V_AUX -->
<g id="edge61" class="edge">
<title>RPI&#45;&gt;NET_5V_AUX</title>
<path fill="none" stroke="black" d="M74.92,-1867.64C74.3,-1810.82 80.27,-1642.57 167,-1548 187.15,-1526.03 208.35,-1545.49 230,-1525 244.75,-1511.04 234.77,-1498.41 248,-1483 257.93,-1471.44 271.94,-1462.1 284.49,-1455.27"/>
<text text-anchor="middle" x="198.5" y="-1551" font-family="Liberation Sans" font-size="10.00">5V_USB</text>
</g>
<!-- NET_RUN -->
<g id="node33" class="node">
<title>NET_RUN</title>
<ellipse fill="#e0ecff" stroke="black" cx="314.94" cy="-2125" rx="29.8" ry="18"/>
<text text-anchor="middle" x="314.94" y="-2121.3" font-family="Liberation Sans" font-size="14.00">RUN</text>
</g>
<!-- RPI&#45;&gt;NET_RUN -->
<g id="edge63" class="edge">
<title>RPI&#45;&gt;NET_RUN</title>
<path fill="none" stroke="black" d="M78.71,-1906.15C86.4,-1945.92 109.69,-2037.76 167,-2086 200.62,-2114.3 252.67,-2122.28 284.95,-2124.41"/>
<text text-anchor="middle" x="198.5" y="-2118" font-family="Liberation Sans" font-size="10.00">RUN</text>
</g>
<!-- STM32 -->
<g id="node2" class="node">
<title>STM32</title>
<path fill="#f3f7ff" stroke="black" d="M123,-988C123,-988 26,-988 26,-988 20,-988 14,-982 14,-976 14,-976 14,-962 14,-962 14,-956 20,-950 26,-950 26,-950 123,-950 123,-950 129,-950 135,-956 135,-962 135,-962 135,-976 135,-976 135,-982 129,-988 123,-988"/>
<text text-anchor="middle" x="74.5" y="-972.8" font-family="Liberation Sans" font-size="14.00">U1</text>
<text text-anchor="middle" x="74.5" y="-957.8" font-family="Liberation Sans" font-size="14.00">B&#45;L475E&#45;IOT01A</text>
</g>
<!-- STM32&#45;&gt;NET_3V3 -->
<g id="edge2" class="edge">
<title>STM32&#45;&gt;NET_3V3</title>
<path fill="none" stroke="black" d="M80.12,-988.02C92.65,-1040.08 127.73,-1189.36 149,-1315 154.31,-1346.36 146.81,-1432.42 167,-1457 185.73,-1479.81 202.2,-1468.07 230,-1478 250.86,-1485.45 274.4,-1494.48 291.24,-1501.05"/>
<text text-anchor="middle" x="198.5" y="-1481" font-family="Liberation Sans" font-size="10.00">3V3</text>
</g>
<!-- STM32&#45;&gt;NET_GND -->
<g id="edge6" class="edge">
<title>STM32&#45;&gt;NET_GND</title>
<path fill="none" stroke="black" d="M77.46,-949.85C82.9,-907.85 102.37,-808.08 167,-766 203.24,-742.41 255.91,-749.62 287.36,-757.18"/>
<text text-anchor="middle" x="198.5" y="-769" font-family="Liberation Sans" font-size="10.00">GND</text>
</g>
<!-- STM32&#45;&gt;NET_SPI_MOSI -->
<g id="edge11" class="edge">
<title>STM32&#45;&gt;NET_SPI_MOSI</title>
<path fill="none" stroke="black" d="M80.87,-988.31C95.11,-1040.47 133.76,-1188.8 149,-1315 152.87,-1347.06 148.27,-1869.7 167,-1896 184.38,-1920.41 202.17,-1908.9 230,-1920 246.87,-1926.73 265.52,-1934.47 280.95,-1940.97"/>
<text text-anchor="middle" x="198.5" y="-1923" font-family="Liberation Sans" font-size="10.00">SPI_MOSI</text>
</g>
<!-- STM32&#45;&gt;NET_SPI_MISO -->
<g id="edge14" class="edge">
<title>STM32&#45;&gt;NET_SPI_MISO</title>
<path fill="none" stroke="black" d="M80.83,-988.31C94.96,-1040.48 133.36,-1188.85 149,-1315 152.3,-1341.59 150.93,-1775.56 167,-1797 184.7,-1820.62 202.36,-1807.65 230,-1818 247.15,-1824.42 266,-1832.21 281.48,-1838.81"/>
<text text-anchor="middle" x="198.5" y="-1821" font-family="Liberation Sans" font-size="10.00">SPI_MISO</text>
</g>
<!-- STM32&#45;&gt;NET_SPI_SCK -->
<g id="edge17" class="edge">
<title>STM32&#45;&gt;NET_SPI_SCK</title>
<path fill="none" stroke="black" d="M80.69,-988.33C94.46,-1040.55 132.07,-1189.01 149,-1315 153.61,-1349.31 146.15,-1598.37 167,-1626 184.86,-1649.68 202.3,-1637.4 230,-1648 247.55,-1654.72 266.92,-1662.75 282.63,-1669.43"/>
<text text-anchor="middle" x="198.5" y="-1651" font-family="Liberation Sans" font-size="10.00">SPI_SCK</text>
</g>
<!-- STM32&#45;&gt;NET_CS_STM32 -->
<g id="edge20" class="edge">
<title>STM32&#45;&gt;NET_CS_STM32</title>
<path fill="none" stroke="black" d="M80.79,-988.32C94.81,-1040.5 132.98,-1188.9 149,-1315 154.8,-1360.68 138.94,-1692.5 167,-1729 168.69,-1731.2 229.97,-1749.89 272.86,-1762.76"/>
<text text-anchor="middle" x="198.5" y="-1752" font-family="Liberation Sans" font-size="10.00">SPI_NSS</text>
</g>
<!-- NET_STEP_X -->
<g id="node13" class="node">
<title>NET_STEP_X</title>
<ellipse fill="#e0ecff" stroke="black" cx="314.94" cy="-990" rx="44.39" ry="18"/>
<text text-anchor="middle" x="314.94" y="-986.3" font-family="Liberation Sans" font-size="14.00">STEP_X</text>
</g>
<!-- STM32&#45;&gt;NET_STEP_X -->
<g id="edge23" class="edge">
<title>STM32&#45;&gt;NET_STEP_X</title>
<path fill="none" stroke="black" d="M135.13,-966.24C163.89,-965.71 198.84,-966.24 230,-970 246.06,-971.94 263.51,-975.8 278.32,-979.62"/>
<text text-anchor="middle" x="198.5" y="-973" font-family="Liberation Sans" font-size="10.00">STEP_X</text>
</g>
<!-- NET_DIR_X -->
<g id="node14" class="node">
<title>NET_DIR_X</title>
<ellipse fill="#e0ecff" stroke="black" cx="314.94" cy="-1381" rx="36.29" ry="18"/>
<text text-anchor="middle" x="314.94" y="-1377.3" font-family="Liberation Sans" font-size="14.00">DIR_X</text>
</g>
<!-- STM32&#45;&gt;NET_DIR_X -->
<g id="edge25" class="edge">
<title>STM32&#45;&gt;NET_DIR_X</title>
<path fill="none" stroke="black" d="M78.9,-988.02C92.11,-1061.08 140.64,-1320.9 167,-1347 182.63,-1362.47 241.03,-1372.28 279.33,-1377.19"/>
<text text-anchor="middle" x="198.5" y="-1372" font-family="Liberation Sans" font-size="10.00">DIR_X</text>
</g>
<!-- NET_EN_X -->
<g id="node15" class="node">
<title>NET_EN_X</title>
<ellipse fill="#e0ecff" stroke="black" cx="314.94" cy="-1257" rx="33.6" ry="18"/>
<text text-anchor="middle" x="314.94" y="-1253.3" font-family="Liberation Sans" font-size="14.00">EN_X</text>
</g>
<!-- STM32&#45;&gt;NET_EN_X -->
<g id="edge27" class="edge">
<title>STM32&#45;&gt;NET_EN_X</title>
<path fill="none" stroke="black" d="M76.67,-988.26C80.6,-1035.11 97.32,-1155.82 167,-1219 183.79,-1234.22 244.35,-1246.14 282.29,-1252.33"/>
<text text-anchor="middle" x="198.5" y="-1245" font-family="Liberation Sans" font-size="10.00">EN_X</text>
</g>
<!-- NET_STEP_Y -->
<g id="node16" class="node">
<title>NET_STEP_Y</title>
<ellipse fill="#e0ecff" stroke="black" cx="314.94" cy="-1598" rx="44.39" ry="18"/>
<text text-anchor="middle" x="314.94" y="-1594.3" font-family="Liberation Sans" font-size="14.00">STEP_Y</text>
</g>
<!-- STM32&#45;&gt;NET_STEP_Y -->
<g id="edge29" class="edge">
<title>STM32&#45;&gt;NET_STEP_Y</title>
<path fill="none" stroke="black" d="M80.58,-988.34C94.08,-1040.6 131.08,-1189.15 149,-1315 152.83,-1341.91 149.64,-1538.08 167,-1559 173.99,-1567.43 233.7,-1581.33 274.82,-1590.05"/>
<text text-anchor="middle" x="198.5" y="-1582" font-family="Liberation Sans" font-size="10.00">STEP_Y</text>
</g>
<!-- NET_DIR_Y -->
<g id="node17" class="node">
<title>NET_DIR_Y</title>
<ellipse fill="#e0ecff" stroke="black" cx="314.94" cy="-1119" rx="36.29" ry="18"/>
<text text-anchor="middle" x="314.94" y="-1115.3" font-family="Liberation Sans" font-size="14.00">DIR_Y</text>
</g>
<!-- STM32&#45;&gt;NET_DIR_Y -->
<g id="edge31" class="edge">
<title>STM32&#45;&gt;NET_DIR_Y</title>
<path fill="none" stroke="black" d="M85.69,-988.41C100.21,-1014.11 129.33,-1059 167,-1083 185.55,-1094.82 242.73,-1106.59 280.05,-1113.31"/>
<text text-anchor="middle" x="198.5" y="-1105" font-family="Liberation Sans" font-size="10.00">DIR_Y</text>
</g>
<!-- NET_EN_Y -->
<g id="node18" class="node">
<title>NET_EN_Y</title>
<ellipse fill="#e0ecff" stroke="black" cx="314.94" cy="-850" rx="33.6" ry="18"/>
<text text-anchor="middle" x="314.94" y="-846.3" font-family="Liberation Sans" font-size="14.00">EN_Y</text>
</g>
<!-- STM32&#45;&gt;NET_EN_Y -->
<g id="edge33" class="edge">
<title>STM32&#45;&gt;NET_EN_Y</title>
<path fill="none" stroke="black" d="M81.85,-949.77C93.25,-918.76 120.47,-858.67 167,-834 205.43,-813.62 257.39,-827.24 288.11,-838.77"/>
<text text-anchor="middle" x="198.5" y="-837" font-family="Liberation Sans" font-size="10.00">EN_Y</text>
</g>
<!-- NET_STEP_Z -->
<g id="node19" class="node">
<title>NET_STEP_Z</title>
<ellipse fill="#e0ecff" stroke="black" cx="314.94" cy="-1199" rx="44.39" ry="18"/>
<text text-anchor="middle" x="314.94" y="-1195.3" font-family="Liberation Sans" font-size="14.00">STEP_Z</text>
</g>
<!-- STM32&#45;&gt;NET_STEP_Z -->
<g id="edge35" class="edge">
<title>STM32&#45;&gt;NET_STEP_Z</title>
<path fill="none" stroke="black" d="M79.92,-988.27C89.39,-1025.23 115.12,-1106.38 167,-1151 175.65,-1158.44 237.61,-1177.16 278.26,-1188.91"/>
<text text-anchor="middle" x="198.5" y="-1177" font-family="Liberation Sans" font-size="10.00">STEP_Z</text>
</g>
<!-- NET_DIR_Z -->
<g id="node20" class="node">
<title>NET_DIR_Z</title>
<ellipse fill="#e0ecff" stroke="black" cx="314.94" cy="-1318" rx="36.29" ry="18"/>
<text text-anchor="middle" x="314.94" y="-1314.3" font-family="Liberation Sans" font-size="14.00">DIR_Z</text>
</g>
<!-- STM32&#45;&gt;NET_DIR_Z -->
<g id="edge37" class="edge">
<title>STM32&#45;&gt;NET_DIR_Z</title>
<path fill="none" stroke="black" d="M74.75,-988.15C73.68,-1043.48 78.67,-1204.83 167,-1287 182.99,-1301.87 240.96,-1310.55 279.13,-1314.78"/>
<text text-anchor="middle" x="198.5" y="-1310" font-family="Liberation Sans" font-size="10.00">DIR_Z</text>
</g>
<!-- NET_EN_Z -->
<g id="node21" class="node">
<title>NET_EN_Z</title>
<ellipse fill="#e0ecff" stroke="black" cx="314.94" cy="-1051" rx="33.29" ry="18"/>
<text text-anchor="middle" x="314.94" y="-1047.3" font-family="Liberation Sans" font-size="14.00">EN_Z</text>
</g>
<!-- STM32&#45;&gt;NET_EN_Z -->
<g id="edge39" class="edge">
<title>STM32&#45;&gt;NET_EN_Z</title>
<path fill="none" stroke="black" d="M109.01,-988.14C125.98,-997.23 147.15,-1007.68 167,-1015 206.06,-1029.39 253.08,-1039.76 283.23,-1045.58"/>
<text text-anchor="middle" x="198.5" y="-1036" font-family="Liberation Sans" font-size="10.00">EN_Z</text>
</g>
<!-- NET_ENC_XA -->
<g id="node22" class="node">
<title>NET_ENC_XA</title>
<ellipse fill="#e0ecff" stroke="black" cx="314.94" cy="-194" rx="46.29" ry="18"/>
<text text-anchor="middle" x="314.94" y="-190.3" font-family="Liberation Sans" font-size="14.00">ENC_XA</text>
</g>
<!-- STM32&#45;&gt;NET_ENC_XA -->
<g id="edge41" class="edge">
<title>STM32&#45;&gt;NET_ENC_XA</title>
<path fill="none" stroke="black" d="M80.15,-949.77C93.38,-894.23 131.39,-728.67 149,-589 153.19,-555.76 146.61,-314.58 167,-288 184.96,-264.58 207.24,-285.79 230,-267 242.58,-256.61 236.72,-246.79 248,-235 258.53,-223.99 272.62,-214.72 285.06,-207.79"/>
<text text-anchor="middle" x="198.5" y="-291" font-family="Liberation Sans" font-size="10.00">ENC_XA</text>
</g>
<!-- NET_ENC_XB -->
<g id="node23" class="node">
<title>NET_ENC_XB</title>
<ellipse fill="#e0ecff" stroke="black" cx="314.94" cy="-461" rx="46.29" ry="18"/>
<text text-anchor="middle" x="314.94" y="-457.3" font-family="Liberation Sans" font-size="14.00">ENC_XB</text>
</g>
<!-- STM32&#45;&gt;NET_ENC_XB -->
<g id="edge43" class="edge">
<title>STM32&#45;&gt;NET_ENC_XB</title>
<path fill="none" stroke="black" d="M79.14,-949.89C95.68,-863.12 163.15,-510.27 167,-506 181.26,-490.21 234.79,-476.62 273.12,-468.63"/>
<text text-anchor="middle" x="198.5" y="-509" font-family="Liberation Sans" font-size="10.00">ENC_XB</text>
</g>
<!-- NET_ENC_YA -->
<g id="node24" class="node">
<title>NET_ENC_YA</title>
<ellipse fill="#e0ecff" stroke="black" cx="314.94" cy="-374" rx="45.49" ry="18"/>
<text text-anchor="middle" x="314.94" y="-370.3" font-family="Liberation Sans" font-size="14.00">ENC_YA</text>
</g>
<!-- STM32&#45;&gt;NET_ENC_YA -->
<g id="edge45" class="edge">
<title>STM32&#45;&gt;NET_ENC_YA</title>
<path fill="none" stroke="black" d="M79.76,-949.71C91.93,-894.03 127.39,-728.11 149,-589 154.25,-555.17 146.44,-463.37 167,-436 174.23,-426.37 239.52,-401.19 280.6,-386.04"/>
<text text-anchor="middle" x="198.5" y="-439" font-family="Liberation Sans" font-size="10.00">ENC_YA</text>
</g>
<!-- NET_ENC_YB -->
<g id="node25" class="node">
<title>NET_ENC_YB</title>
<ellipse fill="#e0ecff" stroke="black" cx="314.94" cy="-18" rx="46.29" ry="18"/>
<text text-anchor="middle" x="314.94" y="-14.3" font-family="Liberation Sans" font-size="14.00">ENC_YB</text>
</g>
<!-- STM32&#45;&gt;NET_ENC_YB -->
<g id="edge47" class="edge">
<title>STM32&#45;&gt;NET_ENC_YB</title>
<path fill="none" stroke="black" d="M80.31,-949.79C93.97,-894.3 133.02,-728.86 149,-589 155.23,-534.43 137.42,-141.28 167,-95 183.91,-68.54 202.27,-77.74 230,-63 238.08,-58.7 239.96,-57.37 248,-53 260.64,-46.13 274.72,-38.64 286.61,-32.36"/>
<text text-anchor="middle" x="198.5" y="-98" font-family="Liberation Sans" font-size="10.00">ENC_YB</text>
</g>
<!-- NET_ENC_ZA -->
<g id="node26" class="node">
<title>NET_ENC_ZA</title>
<ellipse fill="#e0ecff" stroke="black" cx="314.94" cy="-80" rx="45.49" ry="18"/>
<text text-anchor="middle" x="314.94" y="-76.3" font-family="Liberation Sans" font-size="14.00">ENC_ZA</text>
</g>
<!-- STM32&#45;&gt;NET_ENC_ZA -->
<g id="edge49" class="edge">
<title>STM32&#45;&gt;NET_ENC_ZA</title>
<path fill="none" stroke="black" d="M80.27,-949.78C93.82,-894.28 132.6,-728.81 149,-589 154.48,-542.28 142.29,-206.03 167,-166 183.83,-138.75 205.42,-151.54 230,-131 239.69,-122.9 237.94,-116.64 248,-109 257.46,-101.81 268.98,-95.97 279.73,-91.45"/>
<text text-anchor="middle" x="198.5" y="-169" font-family="Liberation Sans" font-size="10.00">ENC_ZA</text>
</g>
<!-- NET_ENC_ZB -->
<g id="node27" class="node">
<title>NET_ENC_ZB</title>
<ellipse fill="#e0ecff" stroke="black" cx="314.94" cy="-136" rx="45.49" ry="18"/>
<text text-anchor="middle" x="314.94" y="-132.3" font-family="Liberation Sans" font-size="14.00">ENC_ZB</text>
</g>
<!-- STM32&#45;&gt;NET_ENC_ZB -->
<g id="edge51" class="edge">
<title>STM32&#45;&gt;NET_ENC_ZB</title>
<path fill="none" stroke="black" d="M80.22,-949.78C93.64,-894.26 132.11,-728.76 149,-589 153.85,-548.91 143.94,-259.15 167,-226 184.39,-200.99 207.33,-219.35 230,-199 242.14,-188.1 236.05,-178.11 248,-167 256.99,-158.65 268.63,-152.17 279.63,-147.35"/>
<text text-anchor="middle" x="198.5" y="-229" font-family="Liberation Sans" font-size="10.00">ENC_ZB</text>
</g>
<!-- NET_ESTOP -->
<g id="node28" class="node">
<title>NET_ESTOP</title>
<ellipse fill="#e0ecff" stroke="black" cx="314.94" cy="-672" rx="40.89" ry="18"/>
<text text-anchor="middle" x="314.94" y="-668.3" font-family="Liberation Sans" font-size="14.00">ESTOP</text>
</g>
<!-- STM32&#45;&gt;NET_ESTOP -->
<g id="edge53" class="edge">
<title>STM32&#45;&gt;NET_ESTOP</title>
<path fill="none" stroke="black" d="M77.77,-949.76C83.94,-905.69 104.97,-796.43 167,-734 188.23,-712.63 202.21,-720.63 230,-709 248.66,-701.19 269.46,-692.02 285.69,-684.77"/>
<text text-anchor="middle" x="198.5" y="-737" font-family="Liberation Sans" font-size="10.00">ESTOP</text>
</g>
<!-- NET_LIM_X -->
<g id="node29" class="node">
<title>NET_LIM_X</title>
<ellipse fill="#e0ecff" stroke="black" cx="314.94" cy="-522" rx="36.29" ry="18"/>
<text text-anchor="middle" x="314.94" y="-518.3" font-family="Liberation Sans" font-size="14.00">LIM_X</text>
</g>
<!-- STM32&#45;&gt;NET_LIM_X -->
<g id="edge55" class="edge">
<title>STM32&#45;&gt;NET_LIM_X</title>
<path fill="none" stroke="black" d="M77.27,-949.6C84.28,-876.7 112.48,-620.34 167,-563 174.98,-554.6 240.72,-538.53 281.52,-529.19"/>
<text text-anchor="middle" x="198.5" y="-566" font-family="Liberation Sans" font-size="10.00">LIM_X</text>
</g>
<!-- NET_LIM_Y -->
<g id="node30" class="node">
<title>NET_LIM_Y</title>
<ellipse fill="#e0ecff" stroke="black" cx="314.94" cy="-590" rx="36.29" ry="18"/>
<text text-anchor="middle" x="314.94" y="-586.3" font-family="Liberation Sans" font-size="14.00">LIM_Y</text>
</g>
<!-- STM32&#45;&gt;NET_LIM_Y -->
<g id="edge57" class="edge">
<title>STM32&#45;&gt;NET_LIM_Y</title>
<path fill="none" stroke="black" d="M78.16,-949.72C87.48,-884.93 120.6,-676.5 167,-630 175.15,-621.84 240.46,-606.22 281.22,-597.1"/>
<text text-anchor="middle" x="198.5" y="-633" font-family="Liberation Sans" font-size="10.00">LIM_Y</text>
</g>
<!-- NET_LIM_Z -->
<g id="node31" class="node">
<title>NET_LIM_Z</title>
<ellipse fill="#e0ecff" stroke="black" cx="314.94" cy="-262" rx="36.29" ry="18"/>
<text text-anchor="middle" x="314.94" y="-258.3" font-family="Liberation Sans" font-size="14.00">LIM_Z</text>
</g>
<!-- STM32&#45;&gt;NET_LIM_Z -->
<g id="edge59" class="edge">
<title>STM32&#45;&gt;NET_LIM_Z</title>
<path fill="none" stroke="black" d="M80.03,-949.75C92.94,-894.17 130.18,-728.51 149,-589 152.47,-563.27 151.02,-376.46 167,-356 185.17,-332.74 204.37,-349.63 230,-335 257,-319.58 283.24,-294.68 299,-278.33"/>
<text text-anchor="middle" x="198.5" y="-359" font-family="Liberation Sans" font-size="10.00">LIM_Z</text>
</g>
<!-- TMC -->
<g id="node3" class="node">
<title>TMC</title>
<path fill="#f3f7ff" stroke="black" d="M124,-1362C124,-1362 25,-1362 25,-1362 19,-1362 13,-1356 13,-1350 13,-1350 13,-1336 13,-1336 13,-1330 19,-1324 25,-1324 25,-1324 124,-1324 124,-1324 130,-1324 136,-1330 136,-1336 136,-1336 136,-1350 136,-1350 136,-1356 130,-1362 124,-1362"/>
<text text-anchor="middle" x="74.5" y="-1346.8" font-family="Liberation Sans" font-size="14.00">A1</text>
<text text-anchor="middle" x="74.5" y="-1331.8" font-family="Liberation Sans" font-size="14.00">TMC5160 Drivers</text>
</g>
<!-- TMC&#45;&gt;NET_3V3 -->
<g id="edge3" class="edge">
<title>TMC&#45;&gt;NET_3V3</title>
<path fill="none" stroke="black" d="M81.25,-1362C92.16,-1394.48 119.15,-1460.14 167,-1491 203.86,-1514.77 256.8,-1515.31 288.05,-1513.01"/>
<text text-anchor="middle" x="198.5" y="-1514" font-family="Liberation Sans" font-size="10.00">3V3</text>
</g>
<!-- TMC&#45;&gt;NET_GND -->
<g id="edge7" class="edge">
<title>TMC&#45;&gt;NET_GND</title>
<path fill="none" stroke="black" d="M80.43,-1323.63C93.57,-1271.32 129.74,-1122.65 149,-997 155.39,-955.3 140.13,-840.52 167,-808 182.03,-789.81 246.86,-776.17 285.21,-769.52"/>
<text text-anchor="middle" x="198.5" y="-811" font-family="Liberation Sans" font-size="10.00">GND</text>
</g>
<!-- TMC&#45;&gt;NET_SPI_MOSI -->
<g id="edge12" class="edge">
<title>TMC&#45;&gt;NET_SPI_MOSI</title>
<path fill="none" stroke="black" d="M78.17,-1362.26C92.13,-1462.73 156.53,-1922.58 167,-1933 180.17,-1946.1 225.02,-1951.42 261.74,-1953.57"/>
<text text-anchor="middle" x="198.5" y="-1953" font-family="Liberation Sans" font-size="10.00">SPI_MOSI</text>
</g>
<!-- TMC&#45;&gt;NET_SPI_MISO -->
<g id="edge15" class="edge">
<title>TMC&#45;&gt;NET_SPI_MISO</title>
<path fill="none" stroke="black" d="M76.23,-1362.19C79.77,-1444.23 97.88,-1764.37 167,-1831 180.33,-1843.84 224.88,-1849.2 261.47,-1851.43"/>
<text text-anchor="middle" x="198.5" y="-1851" font-family="Liberation Sans" font-size="10.00">SPI_MISO</text>
</g>
<!-- TMC&#45;&gt;NET_SPI_SCK -->
<g id="edge18" class="edge">
<title>TMC&#45;&gt;NET_SPI_SCK</title>
<path fill="none" stroke="black" d="M78.28,-1362.16C87.74,-1424.58 120.66,-1620.39 167,-1661 181.55,-1673.75 229.5,-1679.11 266.71,-1681.37"/>
<text text-anchor="middle" x="198.5" y="-1681" font-family="Liberation Sans" font-size="10.00">SPI_SCK</text>
</g>
<!-- TMC&#45;&gt;NET_CS_TMC5160 -->
<g id="edge22" class="edge">
<title>TMC&#45;&gt;NET_CS_TMC5160</title>
<path fill="none" stroke="black" d="M78.27,-1362.21C88.05,-1430.08 121.85,-1664.98 149,-1859 153.07,-1888.1 148.78,-1966.94 167,-1990 173.87,-1998.7 230.89,-2019.21 271.84,-2033.11"/>
<text text-anchor="middle" x="198.5" y="-2020" font-family="Liberation Sans" font-size="10.00">CS_TMC5160</text>
</g>
<!-- TMC&#45;&gt;NET_STEP_X -->
<g id="edge24" class="edge">
<title>TMC&#45;&gt;NET_STEP_X</title>
<path fill="none" stroke="black" d="M77.78,-1323.73C85.97,-1258.01 116.16,-1044.4 167,-1002 182.28,-989.25 233.22,-987.57 270.85,-988.2"/>
<text text-anchor="middle" x="198.5" y="-1005" font-family="Liberation Sans" font-size="10.00">STEP_X</text>
</g>
<!-- TMC&#45;&gt;NET_DIR_X -->
<g id="edge26" class="edge">
<title>TMC&#45;&gt;NET_DIR_X</title>
<path fill="none" stroke="black" d="M104.64,-1362.06C121.98,-1372.25 144.86,-1383.75 167,-1389 205.53,-1398.14 251.27,-1393.28 281.37,-1388.02"/>
<text text-anchor="middle" x="198.5" y="-1397" font-family="Liberation Sans" font-size="10.00">DIR_X</text>
</g>
<!-- TMC&#45;&gt;NET_EN_X -->
<g id="edge28" class="edge">
<title>TMC&#45;&gt;NET_EN_X</title>
<path fill="none" stroke="black" d="M95.47,-1323.69C112.88,-1308.08 139.58,-1286.96 167,-1276 204.14,-1261.15 250.38,-1257.33 280.96,-1256.62"/>
<text text-anchor="middle" x="198.5" y="-1279" font-family="Liberation Sans" font-size="10.00">EN_X</text>
</g>
<!-- TMC&#45;&gt;NET_STEP_Y -->
<g id="edge30" class="edge">
<title>TMC&#45;&gt;NET_STEP_Y</title>
<path fill="none" stroke="black" d="M75.81,-1362.19C77.75,-1410.54 90.27,-1537.41 167,-1593 198.63,-1615.91 244.94,-1613.22 277.08,-1607.35"/>
<text text-anchor="middle" x="198.5" y="-1614" font-family="Liberation Sans" font-size="10.00">STEP_Y</text>
</g>
<!-- TMC&#45;&gt;NET_DIR_Y -->
<g id="edge32" class="edge">
<title>TMC&#45;&gt;NET_DIR_Y</title>
<path fill="none" stroke="black" d="M77.99,-1323.86C84.43,-1282.76 105.66,-1186.11 167,-1140 184.1,-1127.15 240.81,-1122.13 278.57,-1120.2"/>
<text text-anchor="middle" x="198.5" y="-1143" font-family="Liberation Sans" font-size="10.00">DIR_Y</text>
</g>
<!-- TMC&#45;&gt;NET_EN_Y -->
<g id="edge34" class="edge">
<title>TMC&#45;&gt;NET_EN_Y</title>
<path fill="none" stroke="black" d="M80.04,-1323.96C92.35,-1271.87 126.94,-1122.5 149,-997 154.01,-968.49 146.36,-888.29 167,-868 182.62,-852.64 242.62,-849.75 280.95,-849.54"/>
<text text-anchor="middle" x="198.5" y="-871" font-family="Liberation Sans" font-size="10.00">EN_Y</text>
</g>
<!-- TMC&#45;&gt;NET_STEP_Z -->
<g id="edge36" class="edge">
<title>TMC&#45;&gt;NET_STEP_Z</title>
<path fill="none" stroke="black" d="M82.21,-1323.59C93.97,-1292.89 121.5,-1233.94 167,-1208 199.42,-1189.52 242.65,-1189.19 273.82,-1192.32"/>
<text text-anchor="middle" x="198.5" y="-1211" font-family="Liberation Sans" font-size="10.00">STEP_Z</text>
</g>
<!-- TMC&#45;&gt;NET_DIR_Z -->
<g id="edge38" class="edge">
<title>TMC&#45;&gt;NET_DIR_Z</title>
<path fill="none" stroke="black" d="M136.29,-1336.63C181.54,-1331.88 241.73,-1325.57 279.14,-1321.65"/>
<text text-anchor="middle" x="198.5" y="-1335" font-family="Liberation Sans" font-size="10.00">DIR_Z</text>
</g>
<!-- TMC&#45;&gt;NET_EN_Z -->
<g id="edge40" class="edge">
<title>TMC&#45;&gt;NET_EN_Z</title>
<path fill="none" stroke="black" d="M75.5,-1323.68C76.63,-1272.98 87.26,-1135.55 167,-1070 183.99,-1056.03 243.85,-1052.25 281.72,-1051.27"/>
<text text-anchor="middle" x="198.5" y="-1073" font-family="Liberation Sans" font-size="10.00">EN_Z</text>
</g>
<!-- ENC -->
<g id="node4" class="node">
<title>ENC</title>
<path fill="#f3f7ff" stroke="black" d="M137,-274C137,-274 12,-274 12,-274 6,-274 0,-268 0,-262 0,-262 0,-248 0,-248 0,-242 6,-236 12,-236 12,-236 137,-236 137,-236 143,-236 149,-242 149,-248 149,-248 149,-262 149,-262 149,-268 143,-274 137,-274"/>
<text text-anchor="middle" x="74.5" y="-258.8" font-family="Liberation Sans" font-size="14.00">P1</text>
<text text-anchor="middle" x="74.5" y="-243.8" font-family="Liberation Sans" font-size="14.00">Incremental Encoders</text>
</g>
<!-- ENC&#45;&gt;NET_GND -->
<g id="edge8" class="edge">
<title>ENC&#45;&gt;NET_GND</title>
<path fill="none" stroke="black" d="M81.2,-274.06C94.46,-318.89 127.85,-434.65 149,-533 159.23,-580.57 135.39,-604 167,-641 186.17,-663.44 207.81,-642.54 230,-662 243.75,-674.06 237.39,-684.1 248,-699 262,-718.66 282.04,-737.79 296.35,-750.35"/>
<text text-anchor="middle" x="198.5" y="-665" font-family="Liberation Sans" font-size="10.00">GND</text>
</g>
<!-- ENC&#45;&gt;NET_ENC_XA -->
<g id="edge42" class="edge">
<title>ENC&#45;&gt;NET_ENC_XA</title>
<path fill="none" stroke="black" d="M94.11,-235.74C111.28,-219.47 138.37,-197.36 167,-188 202.07,-176.53 244.36,-179.92 274.56,-185.05"/>
<text text-anchor="middle" x="198.5" y="-191" font-family="Liberation Sans" font-size="10.00">ENC_XA</text>
</g>
<!-- ENC&#45;&gt;NET_ENC_XB -->
<g id="edge44" class="edge">
<title>ENC&#45;&gt;NET_ENC_XB</title>
<path fill="none" stroke="black" d="M86.35,-274.24C101.41,-299.35 130.91,-343.11 167,-369 191.22,-386.37 204.12,-377.21 230,-392 255.55,-406.6 281.14,-429.03 297.22,-444.32"/>
<text text-anchor="middle" x="198.5" y="-395" font-family="Liberation Sans" font-size="10.00">ENC_XB</text>
</g>
<!-- ENC&#45;&gt;NET_ENC_YA -->
<g id="edge46" class="edge">
<title>ENC&#45;&gt;NET_ENC_YA</title>
<path fill="none" stroke="black" d="M111.11,-274.11C127.86,-282.78 148.23,-292.89 167,-301 194.36,-312.83 203.08,-311.21 230,-324 251.3,-334.12 274.21,-347.99 290.71,-358.56"/>
<text text-anchor="middle" x="198.5" y="-327" font-family="Liberation Sans" font-size="10.00">ENC_YA</text>
</g>
<!-- ENC&#45;&gt;NET_ENC_YB -->
<g id="edge48" class="edge">
<title>ENC&#45;&gt;NET_ENC_YB</title>
<path fill="none" stroke="black" d="M76.59,-235.8C80.31,-190.42 96.57,-76.55 167,-26 197.82,-3.88 242.33,-4.73 274.28,-9.34"/>
<text text-anchor="middle" x="198.5" y="-29" font-family="Liberation Sans" font-size="10.00">ENC_YB</text>
</g>
<!-- ENC&#45;&gt;NET_ENC_ZA -->
<g id="edge50" class="edge">
<title>ENC&#45;&gt;NET_ENC_ZA</title>
<path fill="none" stroke="black" d="M77.44,-235.82C82.84,-193.76 102.22,-93.86 167,-52 204.52,-27.76 257.95,-48.73 288.98,-65.1"/>
<text text-anchor="middle" x="198.5" y="-55" font-family="Liberation Sans" font-size="10.00">ENC_ZA</text>
</g>
<!-- ENC&#45;&gt;NET_ENC_ZB -->
<g id="edge52" class="edge">
<title>ENC&#45;&gt;NET_ENC_ZB</title>
<path fill="none" stroke="black" d="M81.85,-235.77C93.25,-204.76 120.47,-144.67 167,-120 203.5,-100.64 252.21,-111.96 283.34,-123.03"/>
<text text-anchor="middle" x="198.5" y="-123" font-family="Liberation Sans" font-size="10.00">ENC_ZB</text>
</g>
<!-- ENC&#45;&gt;NET_5V_AUX -->
<g id="edge62" class="edge">
<title>ENC&#45;&gt;NET_5V_AUX</title>
<path fill="none" stroke="black" d="M82.07,-274.25C97.02,-319.02 133.49,-433.86 149,-533 154.95,-571.03 143.69,-848.37 167,-879 184.87,-902.49 212.32,-876.37 230,-900 263.83,-945.23 217.76,-1360.3 248,-1408 254.97,-1418.99 266.7,-1426.6 278.36,-1431.78"/>
<text text-anchor="middle" x="198.5" y="-903" font-family="Liberation Sans" font-size="10.00">5V</text>
</g>
<!-- SAFETY -->
<g id="node5" class="node">
<title>SAFETY</title>
<path fill="#f3f7ff" stroke="black" d="M110,-580C110,-580 39,-580 39,-580 33,-580 27,-574 27,-568 27,-568 27,-554 27,-554 27,-548 33,-542 39,-542 39,-542 110,-542 110,-542 116,-542 122,-548 122,-554 122,-554 122,-568 122,-568 122,-574 116,-580 110,-580"/>
<text text-anchor="middle" x="74.5" y="-564.8" font-family="Liberation Sans" font-size="14.00">SW1</text>
<text text-anchor="middle" x="74.5" y="-549.8" font-family="Liberation Sans" font-size="14.00">Safety Inputs</text>
</g>
<!-- SAFETY&#45;&gt;NET_3V3 -->
<g id="edge4" class="edge">
<title>SAFETY&#45;&gt;NET_3V3</title>
<path fill="none" stroke="black" d="M80.3,-580.22C93.92,-635.71 132.88,-801.15 149,-941 154.96,-992.7 139.75,-1364.67 167,-1409 183.77,-1436.29 206.07,-1422.71 230,-1444 240.23,-1453.1 238,-1459.65 248,-1469 261.3,-1481.43 278.91,-1492.15 292.59,-1499.51"/>
<text text-anchor="middle" x="198.5" y="-1447" font-family="Liberation Sans" font-size="10.00">3V3</text>
</g>
<!-- SAFETY&#45;&gt;NET_GND -->
<g id="edge9" class="edge">
<title>SAFETY&#45;&gt;NET_GND</title>
<path fill="none" stroke="black" d="M86.35,-580.24C101.41,-605.35 130.91,-649.11 167,-675 191.22,-692.37 204.01,-683.4 230,-698 255.85,-712.52 281.97,-734.85 298.05,-749.69"/>
<text text-anchor="middle" x="198.5" y="-701" font-family="Liberation Sans" font-size="10.00">GND</text>
</g>
<!-- SAFETY&#45;&gt;NET_ESTOP -->
<g id="edge54" class="edge">
<title>SAFETY&#45;&gt;NET_ESTOP</title>
<path fill="none" stroke="black" d="M122.03,-568.23C160.65,-574.83 212.04,-585.17 230,-596 240.53,-602.35 239.25,-608.37 248,-617 262.43,-631.24 280.14,-645.87 293.57,-656.46"/>
<text text-anchor="middle" x="198.5" y="-599" font-family="Liberation Sans" font-size="10.00">ESTOP</text>
</g>
<!-- SAFETY&#45;&gt;NET_LIM_X -->
<g id="edge56" class="edge">
<title>SAFETY&#45;&gt;NET_LIM_X</title>
<path fill="none" stroke="black" d="M86.07,-541.69C100.62,-517.35 129.36,-476.69 167,-460 192.6,-448.65 205.42,-446.58 230,-460 242.98,-467.09 237.05,-478.05 248,-488 258.87,-497.88 273.13,-505.7 285.61,-511.34"/>
<text text-anchor="middle" x="198.5" y="-463" font-family="Liberation Sans" font-size="10.00">LIM_X</text>
</g>
<!-- SAFETY&#45;&gt;NET_LIM_Y -->
<g id="edge58" class="edge">
<title>SAFETY&#45;&gt;NET_LIM_Y</title>
<path fill="none" stroke="black" d="M109.39,-541.94C141.63,-526.49 190.88,-510.01 230,-528 241.17,-533.14 238.67,-540.99 248,-549 260.58,-559.8 276.3,-569.69 289.23,-577.04"/>
<text text-anchor="middle" x="198.5" y="-531" font-family="Liberation Sans" font-size="10.00">LIM_Y</text>
</g>
<!-- SAFETY&#45;&gt;NET_LIM_Z -->
<g id="edge60" class="edge">
<title>SAFETY&#45;&gt;NET_LIM_Z</title>
<path fill="none" stroke="black" d="M79.85,-541.85C94.6,-477.76 143.1,-273.78 167,-256 201.31,-230.47 253.63,-240.92 285.7,-251.19"/>
<text text-anchor="middle" x="198.5" y="-259" font-family="Liberation Sans" font-size="10.00">LIM_Z</text>
</g>
</g>
</svg>
